ModelForces
version=1
nRows=4
nColumns=157
inDegrees=no

This file contains the forces exerted on a model during a simulation.

A force is a generalized force, meaning that it can be either a force (N) or a torque (Nm).

Units are S.I. units (second, meters, Newtons, ...)
Angles are in degrees.

endheader
time	glut_med1_r	glut_med2_r	glut_med3_r	glut_min1_r	glut_min2_r	glut_min3_r	semimem_r	semiten_r	bifemlh_r	bifemsh_r	sar_r	add_long_r	add_brev_r	add_mag1_r	add_mag2_r	add_mag3_r	tfl_r	pect_r	grac_r	glut_max1_r	glut_max2_r	glut_max3_r	iliacus_r	psoas_r	quad_fem_r	gem_r	peri_r	rect_fem_r	vas_med_r	vas_int_r	vas_lat_r	med_gas_r	lat_gas_r	soleus_r	tib_post_r	flex_dig_r	flex_hal_r	tib_ant_r	per_brev_r	per_long_r	per_tert_r	ext_dig_r	ext_hal_r	glut_med1_l	glut_med2_l	glut_med3_l	glut_min1_l	glut_min2_l	glut_min3_l	semimem_l	semiten_l	bifemlh_l	bifemsh_l	sar_l	add_long_l	add_brev_l	add_mag1_l	add_mag2_l	add_mag3_l	tfl_l	pect_l	grac_l	glut_max1_l	glut_max2_l	glut_max3_l	iliacus_l	psoas_l	quad_fem_l	gem_l	peri_l	rect_fem_l	vas_med_l	vas_int_l	vas_lat_l	med_gas_l	lat_gas_l	soleus_l	tib_post_l	flex_dig_l	flex_hal_l	tib_ant_l	per_brev_l	per_long_l	per_tert_l	ext_dig_l	ext_hal_l	ercspn_r	ercspn_l	intobl_r	intobl_l	extobl_r	extobl_l	femur_lat_meniscii_r.femur_lat_r.force.X	femur_lat_meniscii_r.femur_lat_r.force.Y	femur_lat_meniscii_r.femur_lat_r.force.Z	femur_lat_meniscii_r.femur_lat_r.torque.X	femur_lat_meniscii_r.femur_lat_r.torque.Y	femur_lat_meniscii_r.femur_lat_r.torque.Z	femur_lat_meniscii_r.meniscus_lat_r.force.X	femur_lat_meniscii_r.meniscus_lat_r.force.Y	femur_lat_meniscii_r.meniscus_lat_r.force.Z	femur_lat_meniscii_r.meniscus_lat_r.torque.X	femur_lat_meniscii_r.meniscus_lat_r.torque.Y	femur_lat_meniscii_r.meniscus_lat_r.torque.Z	femur_med_meniscii_r.femur_med_r.force.X	femur_med_meniscii_r.femur_med_r.force.Y	femur_med_meniscii_r.femur_med_r.force.Z	femur_med_meniscii_r.femur_med_r.torque.X	femur_med_meniscii_r.femur_med_r.torque.Y	femur_med_meniscii_r.femur_med_r.torque.Z	femur_med_meniscii_r.meniscus_med_r.force.X	femur_med_meniscii_r.meniscus_med_r.force.Y	femur_med_meniscii_r.meniscus_med_r.force.Z	femur_med_meniscii_r.meniscus_med_r.torque.X	femur_med_meniscii_r.meniscus_med_r.torque.Y	femur_med_meniscii_r.meniscus_med_r.torque.Z	femur_med_tibia_r.tibia_upper_r.force.X	femur_med_tibia_r.tibia_upper_r.force.Y	femur_med_tibia_r.tibia_upper_r.force.Z	femur_med_tibia_r.tibia_upper_r.torque.X	femur_med_tibia_r.tibia_upper_r.torque.Y	femur_med_tibia_r.tibia_upper_r.torque.Z	femur_med_tibia_r.femur_med_r.force.X	femur_med_tibia_r.femur_med_r.force.Y	femur_med_tibia_r.femur_med_r.force.Z	femur_med_tibia_r.femur_med_r.torque.X	femur_med_tibia_r.femur_med_r.torque.Y	femur_med_tibia_r.femur_med_r.torque.Z	femur_lat_tibia_r.tibia_upper_r.force.X	femur_lat_tibia_r.tibia_upper_r.force.Y	femur_lat_tibia_r.tibia_upper_r.force.Z	femur_lat_tibia_r.tibia_upper_r.torque.X	femur_lat_tibia_r.tibia_upper_r.torque.Y	femur_lat_tibia_r.tibia_upper_r.torque.Z	femur_lat_tibia_r.femur_lat_r.force.X	femur_lat_tibia_r.femur_lat_r.force.Y	femur_lat_tibia_r.femur_lat_r.force.Z	femur_lat_tibia_r.femur_lat_r.torque.X	femur_lat_tibia_r.femur_lat_r.torque.Y	femur_lat_tibia_r.femur_lat_r.torque.Z	aACL_R	pACL_R	aPCL_R	pPCL_R	aMCL_R	mMCL_R	pMCL_R	aLCL_R	mLCL_R	pLCL_R	ground_prescribedForce_fx	ground_prescribedForce_fy	ground_prescribedForce_fz	ground_prescribedForce_px	ground_prescribedForce_py	ground_prescribedForce_pz
      0.00000000	     37.48087652	     28.28714471	     30.25598133	     13.28977762	     14.47626353	     15.91713841	     19.75574241	     19.39969815	     28.08758435	     32.86391948	      7.51392339	     27.93927808	     20.68957741	     14.51222487	     12.16230296	     19.66717628	     12.36347797	     11.16605282	      7.50437259	     18.12681708	     27.55933735	     20.56469162	     63.94906620	     55.74758807	     18.09791099	      9.16719286	     20.03897647	     57.77792964	     47.65608314	     50.07958393	     66.35999724	     42.77225239	     23.07018372	    152.72720615	     92.44658902	     14.93332009	     15.26895791	     41.82851940	     21.62523106	     46.40594865	      8.86060096	     25.04818486	      7.96045570	     37.48087652	     28.28714471	     30.25598133	     13.28977762	     14.47626353	     15.91713841	     42.06683902	     20.39635155	     37.67631238	     36.01822118	      7.59254209	     27.93927808	     20.68957741	     14.51222487	     12.16230296	     19.66717628	     12.58139899	     11.16605282	      7.78214370	     18.12681708	     27.55933735	     20.56469162	     63.94906620	     55.74758807	     18.09791099	      9.16719286	     20.03897647	     52.59637061	     32.48786114	     37.22481259	     39.87514307	     67.71424671	     31.64857027	    152.72720615	     92.44658902	     14.93332009	     15.26895791	     41.82851940	     21.62523106	     46.40594865	      8.86060096	     25.04818486	      7.96045570	    124.99446086	    124.99446086	     44.97041513	     44.97041513	     60.98287244	     60.98287244	     67.73376518	     70.62983087	      7.02708922	     -4.66083787	      1.71713834	     27.87781711	    -67.73376518	    -70.62983087	     -7.02708922	      2.28809683	     -2.08121608	     -1.34770943	      0.01259777	      0.63748467	     -0.05768399	      0.03523784	      0.00050677	      0.01336461	     -0.01259777	     -0.63748467	      0.05768399	     -0.01034783	     -0.00004648	     -0.00284198	     -1.97934753	     -3.40205823	      1.71009326	     -0.09777687	      0.03462426	     -0.04519787	      1.97934753	      3.40205823	     -1.71009326	      0.76675643	     -0.02811910	      0.83244965	      0.00000000	      0.00000000	      0.00000000	      0.00000000	      0.00000000	      0.00000000	      0.00000000	      0.00000000	      0.00000000	      0.00000000	      0.00000000	      0.00000000	      7.64937957	      0.67243103	    174.08315868	    146.18621272	      0.00000000	      0.00000000	      0.00000000	      0.00000000	      0.00000000	      0.00000000	     95.26279000	    -55.00000000	      0.00000000	      0.03000000	     -0.03000000	      0.00000000
      0.00100000	     37.47068608	     28.27022932	     30.24086714	     13.26950867	     14.46480712	     15.91260065	     19.07399783	     18.80066791	     27.30161124	     29.52784258	      6.95997069	     27.92554748	     20.64313666	     14.50364319	     12.15716021	     19.66293667	     12.07971357	     11.15324218	      7.03713407	     18.11779344	     27.54583488	     20.55620729	     63.92578024	     55.73415570	     18.08271668	      9.16509816	     20.03713766	     56.30874230	     45.01207592	     47.28171622	     63.45625956	     40.48320218	     21.88914381	    148.45961542	     92.07433955	     14.97032211	     15.26452367	     43.10168822	     21.44116779	     46.13988551	      9.18165366	     25.31699175	      8.06431596	     37.47068608	     28.27022932	     30.24086714	     13.26950867	     14.46480712	     15.91260065	     42.06228881	     20.39020965	     37.67123261	     35.98888344	      7.57882260	     27.92554748	     20.64313666	     14.50364319	     12.15716021	     19.66293667	     12.58033419	     11.15324218	      7.77413879	     18.11779344	     27.54583488	     20.55620729	     63.92578024	     55.73415570	     18.08271668	      9.16509816	     20.03713766	     52.58867645	     32.47668845	     37.21372981	     39.86386325	     67.70976811	     31.64643975	    152.71327822	     92.44307771	     14.93402208	     15.26942871	     41.82127614	     21.62263156	     46.40335095	      8.85785788	     25.04326423	      7.95848292	    124.81723588	    124.81723588	     44.95337082	     44.95337082	     60.96445217	     60.96445217	     87.18080359	     89.37518834	      7.16254273	     -5.17631195	      2.19840801	     35.90200020	    -87.18080359	    -89.37518834	     -7.16254273	      2.83560852	     -2.65058980	     -1.76911639	      0.05077201	      1.13841763	     -0.09353538	      0.05908625	      0.00031983	      0.03596365	     -0.05077201	     -1.13841763	      0.09353538	     -0.01826265	      0.00029469	     -0.00632485	     -6.57238960	    -11.23245075	      5.00198740	     -0.30453725	      0.11129453	     -0.15320452	      6.57238960	     11.23245075	     -5.00198740	      2.26680300	     -0.09559110	      2.76679828	      0.00000000	      0.00000000	      0.00000000	      0.00000000	      0.00000000	      0.00000000	      0.00000000	      0.00000000	      0.00000000	      0.00000000	      0.00000000	      0.00000000	    -19.45583799	    -27.06087030	    132.62098134	     52.75171000	      0.00000000	      0.00000000	      0.00000000	      0.00000000	      0.00000000	      0.00000000	     95.26279000	    -55.00000000	      0.00000000	      0.03000000	     -0.03000000	      0.00000000
      0.00363812	     37.34835514	     28.07906870	     30.06693175	     13.07563720	     14.34022072	     15.85825408	     14.70746392	     15.19782568	     22.27604290	     16.73822565	      5.31160223	     27.76732136	     20.25125366	     14.40656332	     12.09714607	     19.61150968	     10.20970429	     11.02222644	      5.11288145	     18.01394260	     27.39021065	     20.45700777	     63.65510557	     55.57215632	     17.91844155	      9.13989778	     20.01430392	     46.78646340	     29.97786144	     31.27842726	     45.87496199	     25.18843795	     14.01566164	    114.41788668	     88.87699199	     15.42246054	     15.33608126	     55.23321015	     19.78040203	     43.70444212	     12.02976420	     27.56621760	      8.93652266	     37.34835514	     28.07906870	     30.06693175	     13.07563720	     14.34022072	     15.85825408	     42.00598038	     20.31686562	     37.60867128	     35.67022206	      7.45393277	     27.76732136	     20.25125366	     14.40656332	     12.09714607	     19.61150968	     12.56712103	     11.02222644	      7.69050247	     18.01394260	     27.39021065	     20.45700777	     63.65510557	     55.57215632	     17.91844155	      9.13989778	     20.01430392	     52.49411203	     32.34439359	     37.08136454	     39.72878209	     67.65388634	     31.61986006	    152.54030239	     92.39913390	     14.94219325	     15.27470687	     41.73269891	     21.59051678	     46.37086581	      8.82519980	     24.98352359	      7.93466986	    123.08966988	    123.08966988	     44.75276906	     44.75276906	     60.74948825	     60.74948825	    113.63586312	    123.87632504	     11.38862345	     -7.78574937	      2.87900786	     46.80486770	   -113.63586312	   -123.87632504	    -11.38862345	      3.98588039	     -3.48918609	     -2.25268539	      1.17400283	     11.64945869	      0.05999274	      0.21008042	     -0.02417482	      0.63787568	     -1.17400283	    -11.64945869	     -0.05999274	     -0.18121706	      0.01840296	     -0.08191915	   -105.09562647	   -186.52921068	     67.02779448	     -4.61813695	      1.72792648	     -2.49912082	    105.09562647	    186.52921068	    -67.02779448	     31.05205694	     -1.57663329	     44.36697584	      0.00000000	      0.00000000	      0.00000000	      0.00000000	      0.00000000	      0.00000000	      0.00000000	      0.00000000	      0.00000000	      0.00000000	      0.00000000	      0.00000000	    -40.81524342	      0.00000000	     56.10744419	    -38.42804311	      0.00000000	      0.00000000	      0.00000000	      0.00000000	      0.00000000	      0.00000000	     95.26279000	    -55.00000000	      0.00000000	      0.03000000	     -0.03000000	      0.00000000
      0.00591601	     37.13714896	     27.77367399	     29.78263852	     12.81932257	     14.15028003	     15.76471680	     12.89197575	     13.94053320	     20.59679319	     18.08685241	      5.62661466	     27.50825320	     19.79066629	     14.25124730	     11.99727666	     19.52147355	      9.15200484	     10.83611330	      5.19987559	     17.84414701	     27.13530331	     20.29152651	     63.20690196	     55.29072940	     17.66971995	      9.09625945	     19.97303469	     42.65435450	     24.79866984	     25.68462955	     38.72012280	     16.22821456	      9.40123583	     85.11424489	     85.78735433	     16.20266064	     15.68177533	     65.17326068	     17.95347740	     40.96769514	     13.55814311	     29.47284849	      9.67108634	     37.13714896	     27.77367399	     29.78263852	     12.81932257	     14.15028003	     15.76471680	     41.90468492	     20.19111863	     37.49686567	     35.18506875	      7.29674087	     27.50825320	     19.79066629	     14.25124730	     11.99727666	     19.52147355	     12.54326206	     10.83611330	      7.56881064	     17.84414701	     27.13530331	     20.29152651	     63.20690196	     55.29072940	     17.66971995	      9.09625945	     19.97303469	     52.32559309	     32.12000556	     36.85431895	     39.49622750	     67.55221224	     31.57151043	    152.22760683	     92.31884362	     14.95539991	     15.28263999	     41.57592315	     21.53288204	     46.31157958	      8.76942795	     24.87924773	      7.89344855	    120.76027357	    120.76027357	     44.41531987	     44.41531987	     60.39166582	     60.39166582	     93.64241432	    101.56026279	     19.57495660	    -10.64573754	      2.41393916	     38.58219148	    -93.64241432	   -101.56026279	    -19.57495660	      3.60592232	     -2.99801349	     -1.87487965	      2.09682891	     23.38245852	      2.31583779	     -0.47222400	     -0.06892852	      1.15481806	     -2.09682891	    -23.38245852	     -2.31583779	     -0.31200001	      0.03825266	     -0.13503139	   -176.45030858	   -321.58704856	     98.31795244	     -7.53153258	      2.88939933	     -4.21799113	    176.45030858	    321.58704856	    -98.31795244	     46.44797066	     -2.72275790	     74.60602364	      0.00000000	      0.00000000	      0.00000000	      0.00000000	      0.00000000	      0.00000000	      0.00000000	      0.00000000	      0.00000000	      0.00000000	      0.00000000	      0.00000000	    -23.16170664	      0.00000000	     61.95048028	     29.39811266	      0.00000000	      0.00000000	      0.00000000	      0.00000000	      0.00000000	      0.00000000	     95.26279000	    -55.00000000	      0.00000000	      0.03000000	     -0.03000000	      0.00000000
